<svg xmlns="http://www.w3.org/2000/svg" viewBox="0 0 153 153">
  <path fill="#030d1a" d="M123.56 15.13c3.31 2.81 6.48 5.68 9.44 8.87l1.8 1.74c14.25 14.62 18.86 34.22 18.67 54.06-.6 20.7-8.67 37.96-23.47 52.2l-2.21 2.23C112 149.37 92.54 153.47 71.3 153.21c-20.3-.57-37.65-9.8-51.72-24.08C3.8 112.38-.68 92.47-.3 70.18.38 51.8 9 33.16 22.52 20.6c28.12-25 70.57-29.34 101.05-5.48"/>
  <path fill="#1e6c8c" d="M80 4a69 69 0 0 1 7.75 11.44l1.86 3.3c1.45 3.4 1.68 5.62 1.39 9.26l1.19-2.5L94 23c2.69-.31 2.69-.31 5 0l2-6 2 1-3 6q-.39 3.79-.62 7.59C99 34 99 34 97 37v3h3q2.31 3.8 4.56 7.63l1.33 2.16c2.03 3.47 3.14 5.45 2.98 9.55A30 30 0 0 1 105 67c-3.33-2.8-5.16-6.54-7.19-10.31L96.7 54.7c-2.2-4.06-3.15-6.95-2.7-11.7l-2 3h-2v7h3c3.03 12.23 1.65 25.44-3 37l-1-4c-1.69-.89-1.69-.89-4-1l-2.75 2c-3.29 2.02-3.9 2.3-7.5 1.94C71 88 71 88 69 85l-2 3h-2l-.69 2.5C62.73 94.73 60.5 98.25 58 102l-1-2c.96-1.99.96-1.99 2.38-4.31A24 24 0 0 0 63 86h-4l-1 4c-3.23-7.32-3.18-14.5-3.19-22.37l-.03-3.04C54.76 55.88 56.38 48.9 60 41l1 4h2v5h3v3c3.1-.65 3.1-.65 4.06-2.94L71 48c2-2 2-2 4.5-2.25C78 46 78 46 80 48c.63 2.63.63 2.63 1 5 1.91-3.5 2.04-4.81 1.13-8.81L81 41c1.88-.62 1.88-.62 4-1l2 2-.62-2.31C86 37 86 37 88 34v-3l-2 2a653 653 0 0 1-5.06-8.62l-1.47-2.45c-3.5-6.1-3.5-6.1-3.38-10.34A32 32 0 0 1 80 4"/>
  <path fill="#3c969d" d="M80 4a69 69 0 0 1 7.75 11.44l1.86 3.3c1.45 3.4 1.68 5.62 1.39 9.26l1.19-2.5L94 23c2.69-.31 2.69-.31 5 0l2-6 2 1-3 6q-.39 3.79-.62 7.59C99 34 99 34 97 37v3h3q2.31 3.8 4.56 7.63l1.33 2.16c2.03 3.47 3.14 5.45 2.98 9.55A30 30 0 0 1 105 67c-3.33-2.8-5.16-6.54-7.19-10.31L96.7 54.7c-2.2-4.06-3.15-6.95-2.7-11.7l-2 3h-2v7h3c3.03 12.23 1.65 25.44-3 37l-1-4c-3.05-1.01-3.05-1.01-6 0v-4l2-1c2.18-5.9 2.76-12.77 2-19l-2-3c-.41-1.94-.41-1.94-.62-4l-.23-2.06C84.02 51.3 84 49.64 84 48l-2-3c-.62-2.19-.62-2.19-1-4 1.88-.62 1.88-.62 4-1l2 2-.62-2.31C86 37 86 37 88 34v-3l-2 2a653 653 0 0 1-5.06-8.62l-1.47-2.45c-3.5-6.1-3.5-6.1-3.38-10.34A32 32 0 0 1 80 4"/>
  <path fill="#5dd9eb" d="M76 51.13c3.8 1.1 4.87 2.66 7.02 5.85 3 6.2 2.34 13.45.98 20.02-1.73 2.96-3.44 4.66-6 7-3.58-.3-4.76-.74-7.25-3.44C66.55 74.41 67.17 66.25 68 59c1.49-4.4 3.42-6.54 8-7.87"/>
  <path fill="#143d56" d="m60 41 1 4h2v5h3c1.04 3.32 1 5.01.02 8.41-1.48 5.62-1.16 11.2-1.02 16.97q.08 3.22.13 6.46l.07 2.86C65 87 65 87 63 89v-3h-4l-1 4c-3.23-7.32-3.18-14.5-3.19-22.37l-.03-3.04C54.76 55.88 56.38 48.9 60 41"/>
  <path fill="#1d5b6f" d="m86 44 2 4h2v5h3c3.03 12.23 1.65 25.44-3 37l-1-4c-3.05-1.01-3.05-1.01-6 0v-4l2-1c2.18-5.9 2.76-12.77 2-19l-2-3c-.41-1.94-.41-1.94-.62-4l-.23-2.06c-.2-2.65-.15-5.29-.15-7.94z"/>
  <path fill="#1e6488" d="m96 29 2 1-1 10h3q2.31 3.8 4.56 7.63l1.33 2.16c2.03 3.47 3.14 5.45 2.98 9.55A30 30 0 0 1 105 67c-3.33-2.8-5.16-6.54-7.19-10.31L96.7 54.7c-2.2-4.06-3.15-6.95-2.7-11.7l-2 3h-2c-.55-5.63 1.05-8.39 4-13h2z"/>
  <path fill="#278296" d="m101 17 2 1-3 6q-.33 3.79-.52 7.59c-.55 2.75-1.33 3.67-3.48 5.41l1-7-1 3-1.43 1.4c-1.86 1.9-2.66 3.66-3.7 6.1l-1 2.34A91 91 0 0 0 88 48l-2-3-3 1-2-5c1.88-.62 1.88-.62 4-1l2 2-.62-2.31C86 37 86 37 88 34v-3l-2 2c-3.22-5.27-3.22-5.27-4-7l1-2 1.88 2.5L87 29h2l1-2 1 1 1.19-2.5L94 23c2.69-.31 2.69-.31 5 0z"/>
  <path fill="#1b6c8a" d="M75.5 45.75C78 46 78 46 80 48c.13 2.63.13 2.63 0 5l-3.25-.37c-3.84 0-3.84 0-6.12 2.62C67.94 59.98 68.17 65.7 68 71h-1l-1 6h-1c-2.26-8.75-.8-16.58 2-25h2l.88-1.87c1.53-2.9 2.28-4.05 5.62-4.38"/>
  <path fill="#a7f1f0" d="M75.94 51.44C79 52 79 52 81.38 54.19c1.71 2.97 2 4.45 1.62 7.81l-1-2-2.75 2.5C76.46 65.03 76.13 65 72 65c-2.38-8.02-2.38-8.02-1-11.56 2-1.44 2-1.44 4.94-2"/>
  <path fill="#0c314b" d="m65 53 2 2q-.72 2.76-1.48 5.51c-1.02 4.9-.64 9.9-.52 14.87q.08 3.22.13 6.46l.07 2.86C65 87 65 87 63 89v-3l-3-1c-2.45-21.83-2.45-21.83 1-27l2 22-.07-4.9-.05-6.35-.06-3.22-.02-3.1-.03-2.86c.24-2.67.87-4.29 2.23-6.57"/>
  <path fill="#29667f" d="M96 58c4.75 9 1.6 20.67-1 30-2.79 7.38-6.12 13.78-13 18-3.62 1.2-6.2 1.32-10 1-3.4-1.9-6.52-3.97-9-7v-2c3.36 1.12 4.58 2.5 7 5 3.22 1.61 6.5 1.45 10 1 7.26-3.42 10.67-10.23 13.34-17.52 1.39-5.21 1.53-10.62 1.85-15.98l.25-3.65q.3-4.43.56-8.85"/>
  <path fill="#1b4c5d" d="M90 53h3c3.03 12.23 1.65 25.44-3 37l-.44-1.81Q88.87 85.57 88 83q.45-1.88.94-3.81c1.69-6.95 2.34-15.36.06-22.19.44-2.19.44-2.19 1-4"/>
  <path fill="#276b83" d="m62 46 1 4h3l-1 2.72c-1.56 5.48-1.21 11.07-1.12 16.72l.02 3.37L64 81l-2-1c-.41-1.86-.41-1.86-.63-4.25l-.23-2.33-.27-2.98L60 61v20h-1c-2.69-11.06-2.13-24.75 3-35"/>
  <path fill="#247791" d="m84 47 2 1-.62 2c-.52 4.13.43 7.02 1.62 11l1 1c.56 6.58-.29 12.66-2 19l-1.86.43A28 28 0 0 0 78 84l2.44-2.69c4.02-5.61 4.2-12.88 3.23-19.56A38 38 0 0 0 80 53l1.44-1.87c1.58-2.04 1.58-2.04 2.56-4.13"/>
  <path fill="#97b5b8" d="M70.13 124.25C72 125 72 125 73 126q.18 2.47.19 4.94l.04 2.71C73 136 73 136 71 138c-2.56-.25-2.56-.25-5-1-1.6-3.18-1.4-6.54-1-10 1.56-2.58 2.1-3.1 5.13-2.75"/>
  <path fill="#1d5d8b" d="M102 46a25 25 0 0 1 7 10c-.09 4.46-1.53 7.34-4 11-3.81-2.77-4.07-6.63-5-11l3-1-1-3q-.06-3 0-6"/>
  <path fill="#41afb4" d="M80 4c3.95 4.4 6.87 9.5 9 15l-1 2-3-3-2 2-4-8-3 2c.57-3.96 1.8-6.67 4-10"/>
  <path fill="#aed0d2" d="M75 124h5c2.37 3.55 2.1 4.58 1.63 8.69l-.34 3L81 138l-2-4h-2v4h-2z"/>
  <path fill="#051422" d="m57 40 3 2-2.25 5.66c-1.75 5.45-2 11.05-2.31 16.72l-.13 2.23L55 72l-3-1c.54-10.67 1.28-20.89 5-31"/>
  <path fill="#9dbcbf" d="M36 124c2.83 2.83 3.38 3.38 4 7l3-7h1v14l-2-4-1 2h-2l-1 2h-2z"/>
  <path fill="#56e6ef" d="M69 57c3.67 3.67 4.13 7.87 4.13 12.88L73 74h-5l-.06-7.37-.03-2.12C67.9 59.23 67.9 59.23 69 57"/>
  <path fill="#051423" d="M94 58h2c.42 21.46.42 21.46-2 29l-2 2c-1.16-3.69-.54-6.02.48-9.73.93-4.04 1-8.14 1.14-12.27l.12-2.64z"/>
  <path fill="#3ba0a6" d="m82 24 5 5h2l1-2c1.94.31 1.94.31 4 1l1 3h-2l-2 6h-2l-2 3-1-3 2-3v-3l-2 2c-4-6.75-4-6.75-4-9"/>
  <path fill="#a8cacd" d="M104 124h3l1.5 5.31.84 3C110 135 110 135 110 138h-2v-3c-2.87.57-3.86.86-6 3a266 266 0 0 1 2-14"/>
  <path fill="#a7cacc" d="M83 124h6l-1 3-3-1v4h4v2h-4v4h4l1-3-1 5h-6z"/>
  <path fill="#12374c" d="M74 9v2l-1.9.56c-9.56 3.23-14.6 9.13-19.1 18q-1.02 2.2-2 4.44c-1-3-1-3-.07-5.42C55.6 20 62.85 8.04 74 9"/>
  <path fill="#d5faf8" d="M77.06 52.94 80 53l2 5-3-1v3l-7 1c1.02-7.98 1.02-7.98 5.06-8.06"/>
  <path fill="#3992a6" d="M67 54c1.53 3.07 1.1 6.27 1.06 9.63l-.01 2.14L68 71h-1l-1 6h-1c-1.95-7.55-1.24-14.63 1-22z"/>
  <path fill="#aacbce" d="M48 124c2.13.38 2.13.38 4 1v2h-4v3l4 1v6l-5 1-1-3 5 1v-3l-4-1c-.62-2.87-.62-2.87-1-6z"/>
  <path fill="#135779" d="M66 62h1l1.56 10.45c.76 6.14.76 6.14.44 8.55l-4 5z"/>
  <path fill="#0d415c" d="m65 53 2 2q-.7 2.84-1.48 5.66c-.91 4.09-.73 8.17-.64 12.34l.02 2.64L65 82l-2-1q-.09-5.87-.12-11.75l-.06-3.37-.02-3.24-.03-2.98c.24-2.72.84-4.34 2.23-6.66"/>
  <path fill="#1f638f" d="M86 93c0 3 0 3-2.56 5.69-2.6 2.02-3.57 2.33-7 2.81-3.65-.53-5.58-1.2-8.44-3.5a68 68 0 0 1-2-4l1.54.88C73.43 98.06 73.43 98.06 80 98a43 43 0 0 0 6-5"/>
  <path fill="#90acb0" d="M95 124h7v2h-3v12h-2v-11h-2z"/>
  <path fill="#a7c8cb" d="M54 124h5v2h-3v6h3v2h-3v4h-2z"/>
  <path fill="#333e47" d="M44 124h1l.44 2.88c.39 3.01.39 3.01 1.56 5.12 2.02.65 2.02.65 4 1v3l-5-1 1 3h-3z"/>
  <path fill="#1b5c79" d="m86 44 2 4h2v7l-2 1c-4-8-4-8-4-11z"/>
  <path fill="#072445" d="m96 29 2 1a26 26 0 0 1-3.56 9.81l-1.38 2.4L92 44h-2c.6-4.13 2.04-7.33 4-11h2z"/>
  <path fill="#3e4e54" d="M90 125c.13 7.63.13 7.63-1 11h-4v-4h4v-2h-4v-4c3.88-1 3.88-1 5-1"/>
  <path fill="#141c27" d="M68 127c2.06.44 2.06.44 4 1 .13 5.75.13 5.75-1 8h-3c-1.37-2.73-1.13-4.98-1-8z"/>
  <path fill="#166281" d="m76 50-2.81 3.31-1.58 1.87A88 88 0 0 1 67 60c-.43-5.28-.43-5.28 0-8 3.23-2.96 4.95-3.24 9-2"/>
  <path fill="#1d262f" d="M53 124h1v14c-2.36-2.36-2.5-3.78-3-7l-3-1v-3l1.94-.37L52 126z"/>
  <path fill="#257599" d="M84 88c0 3 0 3-1.5 5.19-3.07 2.22-4.89 2.33-8.6 2.14-2.62-.45-4.1-1.38-5.9-3.33v-2l2 1.06c4.16 1.3 6.72.84 11-.06 1.99-1.4 1.99-1.4 3-3"/>
  <path fill="#5c7076" d="m80 125 2 2c-.02 2.6-.02 2.6-.37 5.63l-.34 3.03L81 138l-2-3 1-3h-3v-6z"/>
  <path fill="#aeced1" d="M111 124h2v12h4v2h-6z"/>
  <path fill="#3399ac" d="M82 40c3.7.7 3.7.7 5 2l2-2c.93 2.6 1.15 3.64.06 6.25L88 48l-2-3-3 1-2-5z"/>
  <path fill="#50a4a6" d="m80 35 1 2-1.98.04C72.61 37.4 69.5 38.38 65 43c.23-3.25 1.06-4.06 3.56-6.25 4.29-2.18 6.7-2.08 11.44-1.75"/>
  <path fill="#81e8ec" d="M69 57c2.36 2.36 2.5 3.78 3 7h-2l-1 10h-1l-.06-7.37-.03-2.12C67.9 59.23 67.9 59.23 69 57"/>
  <path fill="#52646a" d="m59 125 2 2c-.37 3.13-.37 3.13-1 6l-4-1v-6z"/>
  <path fill="#164a77" d="M63 98c3 1 3 1 4.69 2.94 3.24 2.89 6.08 3.21 10.31 4.06-3 2-3 2-5.25 2-3.94-1.43-6.92-3.93-9.75-7z"/>
  <path fill="#0a2132" d="m61 45 2 1-1.44 3.69A46 46 0 0 0 59 59c-2.59-3.88-1.88-5.53-1-10l1-3z"/>
  <path fill="#0b1f34" d="M53 62h2v10l-3-1c-.12-6.75-.12-6.75 1-9"/>
  <path fill="#4b9ea4" d="M79 41v2l-1.9.08-2.47.17-2.47.14c-2.35.4-2.35.4-3.45 2.66L68 48l-1-3c4-3.88 6.48-4.43 12-4"/>
  <path fill="#45b1b1" d="m101 17 2 1a34 34 0 0 1-7 10l-2-5h5z"/>
  <path fill="#b0d4d6" d="M72 128h1c.2 6.05.2 6.05 0 8l-2 2c-2.62-.37-2.62-.37-5-1l1-4 1 3h3z"/>
  <path fill="#081f2e" d="M93 77c2 2 2 2 2.05 3.88l-.3 2.12-.27 2.13C94 87 94 87 92 89c-1.46-4.52-.27-7.52 1-12"/>
  <path fill="#092546" d="M103 50c4.43 5.14 4.43 5.14 5 9h-3c-1.75-2.25-1.75-2.25-3-5 .31-2.31.31-2.31 1-4"/>
  <path fill="#3a9aa8" d="m84 47 2 1-1 7-4 1c0-3.15.53-4.31 2-7z"/>
  <path fill="#115470" d="M78 11c2.59 1.3 2.96 2.33 4 5 .13 2.75.13 2.75 0 5-3.1-2.53-3.9-5.22-5-9z"/>
  <path fill="#12657d" d="M80 7c2.25 2.69 3.88 4.65 5 8l-2 2c-3.22-5.18-3.22-5.18-4-7z"/>
  <path fill="#0a2842" d="M83 21c2.72 2.35 3.81 4.62 5 8h-3c-1.75-2.31-1.75-2.31-3-5z"/>
  <path fill="#124d67" d="M85 16a29 29 0 0 1 5 9h-3c-1.75-2.25-1.75-2.25-3-5 .31-2.31.31-2.31 1-4"/>
  <path fill="#06263d" d="m62 80 1 2h2l-1 7a16 16 0 0 1-3-8z"/>
  <path fill="#051836" d="M101 55c2.72 2.35 3.81 4.62 5 8h-3l-3-7z"/>
  <path fill="#596e73" d="M104 124c2.13 3.19 2.5 5.27 3 9h-3c-1.16-3.48-.7-5.46 0-9"/>
  <path fill="#bff6f4" d="M77 53h3l2 5-3-1-1 3-2-6z"/>
  <path fill="#092646" d="M96 48h3l2 6h-3z"/>
  <path fill="#0a3a56" d="m87 79 1 3-4 4-1-4z"/>
  <path fill="#5cb9be" d="M75.75 45.69 78 46v2l-9 3c3.32-4.92 3.32-4.92 6.75-5.31"/>
  <path fill="#98b1b4" d="M48 124c2.06.44 2.06.44 4 1v2h-5l-1 3c.88-4.87.88-4.87 2-6"/>
  <path fill="#48b4b7" d="m82 40 4 1-2 5-3-3z"/>
  <path fill="#165675" d="m91 35 2 1-3 6-2-2c.38-2.12.38-2.12 1-4l2 1z"/>
  <path fill="#0d2d4a" d="m96 29 2 1c-.75 4.75-.75 4.75-3 7l-2-1 1-3h2z"/>
</svg>
